<svg height="496pt" viewBox="0 0 496 496" width="496pt" xmlns="http://www.w3.org/2000/svg"><path d="M376 224h73.473c3.312 9.29 12.113 16 22.527 16 13.23 0 24-10.77 24-24s-10.77-24-24-24c-10.414 0-19.215 6.71-22.527 16H376v-16h24c2.129 0 4.16-.84 5.656-2.344L435.312 160h14.16c3.313 9.29 12.114 16 22.528 16 13.23 0 24-10.77 24-24s-10.77-24-24-24c-10.414 0-19.215 6.71-22.527 16H432c-2.129 0-4.16.84-5.656 2.344L396.688 176H376v-8c0-2.121-.84-4.16-2.344-5.656l-40-40A7.964 7.964 0 00328 120h-40v-10.457l58.816-22.055A8 8 0 00352 80V46.527c9.29-3.312 16-12.113 16-22.527 0-13.23-10.77-24-24-24s-24 10.77-24 24c0 10.414 6.71 19.215 16 22.527v27.93l-48 18v-13.93c9.29-3.312 16-12.113 16-22.527 0-13.23-10.77-24-24-24s-24 10.77-24 24c0 10.414 6.71 19.215 16 22.527V120h-48V46.527c9.29-3.312 16-12.113 16-22.527 0-13.23-10.77-24-24-24s-24 10.77-24 24c0 10.414 6.71 19.215 16 22.527V120h-16V96c0-2.121-.84-4.16-2.344-5.656L160 60.688v-14.16c9.29-3.313 16-12.114 16-22.528 0-13.23-10.77-24-24-24s-24 10.77-24 24c0 10.414 6.71 19.215 16 22.527V64c0 2.121.84 4.16 2.344 5.656L176 99.312V120h-8c-2.129 0-4.16.84-5.656 2.344l-40 40A7.978 7.978 0 00120 168v40h-10.457l-22.055-58.809A7.995 7.995 0 0080 144H46.527c-3.312-9.29-12.113-16-22.527-16-13.23 0-24 10.77-24 24s10.77 24 24 24c10.414 0 19.215-6.71 22.527-16h27.93l18 48h-13.93c-3.312-9.29-12.113-16-22.527-16-13.23 0-24 10.77-24 24s10.77 24 24 24c10.414 0 19.215-6.71 22.527-16H120v48H46.527c-3.312-9.29-12.113-16-22.527-16-13.23 0-24 10.77-24 24s10.77 24 24 24c10.414 0 19.215-6.71 22.527-16H120v16H96c-2.129 0-4.16.84-5.656 2.344L60.688 336h-14.16c-3.313-9.29-12.114-16-22.528-16-13.23 0-24 10.77-24 24s10.77 24 24 24c10.414 0 19.215-6.71 22.527-16H64c2.129 0 4.16-.84 5.656-2.344L99.313 320H120v8c0 2.129.84 4.16 2.344 5.656l40 40A7.964 7.964 0 00168 376h40v10.457l-58.816 22.055A8 8 0 00144 416v33.473c-9.29 3.312-16 12.113-16 22.527 0 13.23 10.77 24 24 24s24-10.77 24-24c0-10.414-6.71-19.215-16-22.527v-27.93l48-18v13.93c-9.29 3.312-16 12.113-16 22.527 0 13.23 10.77 24 24 24s24-10.77 24-24c0-10.414-6.71-19.215-16-22.527V376h48v73.473c-9.29 3.312-16 12.113-16 22.527 0 13.23 10.77 24 24 24s24-10.77 24-24c0-10.414-6.71-19.215-16-22.527V376h16v24c0 2.129.84 4.16 2.344 5.656L336 435.312v14.16c-9.29 3.313-16 12.114-16 22.528 0 13.23 10.77 24 24 24s24-10.77 24-24c0-10.414-6.71-19.215-16-22.527V432c0-2.129-.84-4.16-2.344-5.656L320 396.688V376h8c2.129 0 4.16-.84 5.656-2.344l40-40A7.964 7.964 0 00376 328v-40h10.457l22.055 58.816A8 8 0 00416 352h33.473c3.312 9.29 12.113 16 22.527 16 13.23 0 24-10.77 24-24s-10.77-24-24-24c-10.414 0-19.215 6.71-22.527 16h-27.93l-18-48h13.93c3.312 9.29 12.113 16 22.527 16 13.23 0 24-10.77 24-24s-10.77-24-24-24c-10.414 0-19.215 6.71-22.527 16H376zm96-16c4.414 0 8 3.594 8 8s-3.586 8-8 8-8-3.594-8-8 3.586-8 8-8zm0-64c4.414 0 8 3.594 8 8s-3.586 8-8 8-8-3.594-8-8 3.586-8 8-8zM344 16c4.414 0 8 3.594 8 8s-3.586 8-8 8-8-3.594-8-8 3.586-8 8-8zm-64 32c4.414 0 8 3.594 8 8s-3.586 8-8 8-8-3.594-8-8 3.586-8 8-8zm-64-32c4.414 0 8 3.594 8 8s-3.586 8-8 8-8-3.594-8-8 3.586-8 8-8zm-64 0c4.414 0 8 3.594 8 8s-3.586 8-8 8-8-3.594-8-8 3.586-8 8-8zM24 160c-4.414 0-8-3.594-8-8s3.586-8 8-8 8 3.594 8 8-3.586 8-8 8zm32 64c-4.414 0-8-3.594-8-8s3.586-8 8-8 8 3.594 8 8-3.586 8-8 8zm-32 64c-4.414 0-8-3.586-8-8s3.586-8 8-8 8 3.586 8 8-3.586 8-8 8zm0 64c-4.414 0-8-3.586-8-8s3.586-8 8-8 8 3.586 8 8-3.586 8-8 8zm128 128c-4.414 0-8-3.586-8-8s3.586-8 8-8 8 3.586 8 8-3.586 8-8 8zm64-32c-4.414 0-8-3.586-8-8s3.586-8 8-8 8 3.586 8 8-3.586 8-8 8zm64 32c-4.414 0-8-3.586-8-8s3.586-8 8-8 8 3.586 8 8-3.586 8-8 8zm64 0c-4.414 0-8-3.586-8-8s3.586-8 8-8 8 3.586 8 8-3.586 8-8 8zm128-144c4.414 0 8 3.586 8 8s-3.586 8-8 8-8-3.586-8-8 3.586-8 8-8zm-32-64c4.414 0 8 3.586 8 8s-3.586 8-8 8-8-3.586-8-8 3.586-8 8-8zm-80 52.688L324.687 360H171.313L136 324.687V171.313L171.313 136h153.375L360 171.313zm0 0"/><path d="M312 152H184c-2.129 0-4.16.84-5.656 2.344l-24 24A7.978 7.978 0 00152 184v128c0 2.129.84 4.16 2.344 5.656l24 24A7.964 7.964 0 00184 344h128c2.129 0 4.16-.84 5.656-2.344l24-24A7.964 7.964 0 00344 312V184c0-2.121-.84-4.16-2.344-5.656l-24-24A7.964 7.964 0 00312 152zm16 48h-44.688l-13.656-13.656A7.964 7.964 0 00264 184h-64v16h60.688l13.656 13.656A7.964 7.964 0 00280 216h48v92.688L308.687 328H187.313L168 308.687V296h44.688l13.656 13.656A7.964 7.964 0 00232 312h64v-16h-60.688l-13.656-13.656A7.964 7.964 0 00216 280h-48v-92.688L187.313 168h121.375L328 187.313zm0 0"/></svg>